<?xml version="1.0" encoding="UTF-8"?>
<svg width="120px" height="120px" viewBox="0 0 120 120" version="1.1" xmlns="http://www.w3.org/2000/svg" xmlns:xlink="http://www.w3.org/1999/xlink">
    <title>ir-logomark</title>
    <g id="Page-1" stroke="none" stroke-width="1" fill="none" fill-rule="evenodd">
        <g id="logomark" transform="translate(59.831993, 60.345000) scale(-1, 1) translate(-59.831993, -60.345000) translate(19.000000, 32.000000)" fill="#FFFFFF" fill-rule="nonzero">
            <path d="M11.750826,56.69 L42.2408762,56.69 C50.2721577,56.69 56.4999537,50.6100494 56.4999537,42.7848377 C56.4999537,35.0160119 50.1592595,29.1331057 41.733736,29.0767919 C38.4932333,22.9124245 32.6600038,19.1405853 25.6996681,19.1405853 C16.5131459,19.1405853 8.73565082,26.2619999 7.86207852,35.5226925 C3.18427724,36.9300704 0,40.9271651 0,45.9936104 C0,52.2425386 4.70597894,56.69 11.750826,56.69 Z M59.7404564,41.26476 C63.8827019,38.4501481 66.4191239,34.1715923 66.4191239,29.1893835 C66.4191239,21.4486967 60.2475966,15.2280155 52.4983802,15.2280155 C47.3977625,15.2280155 42.9738127,17.9865296 40.634692,22.03983 C41.8184999,23.2783385 42.8327801,24.6012637 43.6782541,26.233861 C52.9773859,26.9657249 58.9797463,32.7641783 59.7404564,41.26476 Z M36.1541127,16.1850627 C37.0839898,17.1139351 38.6057708,17.0857962 39.4793792,16.1850627 C40.3529876,15.2843293 40.3811219,13.8206375 39.4793792,12.9199041 L35.1397964,8.58510645 C34.2380536,7.68437302 32.7727217,7.68437302 31.8709789,8.58510645 C30.9692362,9.48583987 30.9410297,10.9777066 31.8709789,11.8784401 L36.1541127,16.1850627 Z M52.4983802,10.7806622 C53.7947255,10.7806622 54.8371401,9.68288432 54.8371401,8.44437586 L54.8371401,2.33627912 C54.8371401,1.06962094 53.7947255,0 52.4983802,0 C51.2020348,0 50.1592595,1.06962094 50.1592595,2.33627912 L50.1592595,8.44437586 C50.1592595,9.68288432 51.2020348,10.7806622 52.4983802,10.7806622 Z M73.2384631,31.5256699 L79.353361,31.5256699 C80.621572,31.5256699 81.6639866,30.4842059 81.6639866,29.1893835 C81.6639866,27.9227362 80.621572,26.8530972 79.353361,26.8530972 L73.2384631,26.8530972 C71.9983865,26.8530972 70.8993425,27.9227362 70.8993425,29.1893835 C70.8993425,30.4842059 71.9983865,31.5256699 73.2384631,31.5256699 Z M65.5173811,16.1850627 C66.3906288,17.0857962 67.9124098,17.1139351 68.8422869,16.1850627 L73.1536993,11.8784401 C74.0554421,10.9777066 74.0554421,9.48583987 73.1536993,8.58510645 C72.2519566,7.68437302 70.786805,7.68437302 69.8850622,8.58510645 L65.5173811,12.9199041 C64.6156384,13.8206375 64.6437728,15.2843293 65.5173811,16.1850627 Z M69.8850622,49.8498304 C70.786805,50.7505638 72.2519566,50.7224609 73.1536993,49.8217275 C74.0554421,48.9209941 74.0554421,47.4293795 73.1536993,46.556749 L68.7860182,42.2501623 C67.8842755,41.3775318 66.4191239,41.3494289 65.5173811,42.2501623 C64.6156384,43.1508957 64.6156384,44.6425103 65.5173811,45.5432437 L69.8850622,49.8498304 Z" id="Shape"></path>
        </g>
    </g>
</svg>